<svg width="589" height="305" viewBox="0 0 589 305" fill="none" xmlns="http://www.w3.org/2000/svg">
<path d="M29.1835 212V58.4029H32.9137L147.892 206.953H145.478V58.4029H149.867V212H146.137L31.1583 63.4496H33.5719V212H29.1835ZM310.136 212.658C291.851 212.658 277.369 207.246 266.69 196.421C256.158 185.596 250.891 169.359 250.891 147.709V58.4029H255.28V147.489C255.28 167.969 260.034 183.255 269.542 193.349C279.197 203.442 292.728 208.489 310.136 208.489C327.544 208.489 341.002 203.442 350.51 193.349C360.165 183.255 364.992 167.969 364.992 147.489V58.4029H369.381V147.709C369.381 169.359 364.041 185.596 353.363 196.421C342.83 207.246 328.421 212.658 310.136 212.658ZM473.595 131.91H559.39V136.079H473.595V131.91ZM474.692 207.831H572.556V212H470.304V58.4029H569.264V62.5719H474.692V207.831Z" fill="white"/>
<path d="M37.6814 294.47C35.4579 294.47 33.3514 294.06 31.3619 293.241C29.4018 292.422 27.9097 291.383 26.8857 290.125L27.5001 289.555C28.4655 290.696 29.8552 291.661 31.6691 292.451C33.5123 293.241 35.5018 293.636 37.6375 293.636C39.861 293.636 41.6749 293.329 43.0792 292.714C44.5128 292.1 45.566 291.281 46.2389 290.257C46.9411 289.204 47.2922 288.048 47.2922 286.79C47.2922 285.327 46.9411 284.157 46.2389 283.279C45.5368 282.372 44.6006 281.67 43.4303 281.173C42.26 280.646 40.9874 280.222 39.6123 279.9C38.2372 279.549 36.8476 279.198 35.4432 278.847C34.0682 278.496 32.7955 278.042 31.6253 277.486C30.455 276.901 29.5188 276.111 28.8166 275.117C28.1145 274.122 27.7634 272.82 27.7634 271.211C27.7634 269.865 28.1145 268.607 28.8166 267.437C29.548 266.266 30.6598 265.316 32.1519 264.584C33.6732 263.853 35.6334 263.487 38.0324 263.487C39.6708 263.487 41.2799 263.75 42.8598 264.277C44.4689 264.774 45.8293 265.447 46.9411 266.296L46.4583 266.998C45.2296 266.091 43.8691 265.418 42.3771 264.979C40.885 264.54 39.4514 264.321 38.0763 264.321C35.9406 264.321 34.1706 264.643 32.7663 265.286C31.3619 265.901 30.3233 266.735 29.6504 267.788C28.9775 268.812 28.6411 269.967 28.6411 271.255C28.6411 272.747 28.9922 273.946 29.6943 274.853C30.3965 275.731 31.3327 276.433 32.503 276.96C33.6732 277.457 34.9459 277.881 36.3209 278.232C37.7253 278.554 39.1149 278.905 40.49 279.286C41.8651 279.637 43.1377 280.105 44.308 280.69C45.4783 281.246 46.4145 282.006 47.1166 282.972C47.8188 283.937 48.1699 285.21 48.1699 286.79C48.1699 288.136 47.8042 289.394 47.0727 290.564C46.3413 291.734 45.2003 292.685 43.6497 293.417C42.0991 294.119 40.1097 294.47 37.6814 294.47ZM136.239 294.338V264.453H124.829V263.619H148.527V264.453H137.117V294.338H136.239ZM239.86 294.47C236.203 294.47 233.307 293.387 231.171 291.222C229.064 289.057 228.011 285.81 228.011 281.48V263.619H228.889V281.436C228.889 285.532 229.84 288.589 231.741 290.608C233.672 292.627 236.379 293.636 239.86 293.636C243.342 293.636 246.033 292.627 247.935 290.608C249.866 288.589 250.831 285.532 250.831 281.436V263.619H251.709V281.48C251.709 285.81 250.641 289.057 248.505 291.222C246.399 293.387 243.517 294.47 239.86 294.47ZM337.502 294.338V263.619H349.131C352.379 263.619 355.216 264.292 357.645 265.637C360.073 266.954 361.96 268.768 363.306 271.079C364.652 273.39 365.325 276.024 365.325 278.978C365.325 281.933 364.652 284.566 363.306 286.878C361.96 289.189 360.073 291.018 357.645 292.363C355.216 293.68 352.379 294.338 349.131 294.338H337.502ZM338.379 293.504H349.043C352.174 293.504 354.895 292.875 357.206 291.617C359.517 290.359 361.302 288.648 362.56 286.483C363.818 284.288 364.447 281.787 364.447 278.978C364.447 276.17 363.818 273.683 362.56 271.518C361.302 269.324 359.517 267.598 357.206 266.34C354.895 265.082 352.174 264.453 349.043 264.453H338.379V293.504ZM448.143 294.338V263.619H449.021V294.338H448.143ZM547.592 294.47C545.339 294.47 543.247 294.089 541.316 293.329C539.415 292.539 537.747 291.442 536.313 290.037C534.909 288.633 533.812 286.995 533.022 285.122C532.232 283.25 531.837 281.202 531.837 278.978C531.837 276.755 532.232 274.707 533.022 272.835C533.812 270.962 534.909 269.324 536.313 267.919C537.747 266.515 539.415 265.433 541.316 264.672C543.247 263.882 545.339 263.487 547.592 263.487C549.845 263.487 551.922 263.882 553.824 264.672C555.754 265.433 557.422 266.515 558.826 267.919C560.26 269.324 561.372 270.962 562.162 272.835C562.952 274.707 563.347 276.755 563.347 278.978C563.347 281.202 562.952 283.25 562.162 285.122C561.372 286.995 560.26 288.633 558.826 290.037C557.422 291.442 555.754 292.539 553.824 293.329C551.922 294.089 549.845 294.47 547.592 294.47ZM547.592 293.636C549.698 293.636 551.659 293.27 553.472 292.539C555.286 291.807 556.866 290.783 558.212 289.467C559.558 288.121 560.596 286.571 561.328 284.815C562.089 283.03 562.469 281.085 562.469 278.978C562.469 276.872 562.089 274.941 561.328 273.186C560.596 271.401 559.558 269.85 558.212 268.534C556.866 267.188 555.286 266.149 553.472 265.418C551.659 264.687 549.698 264.321 547.592 264.321C545.485 264.321 543.525 264.687 541.711 265.418C539.897 266.149 538.318 267.188 536.972 268.534C535.626 269.85 534.573 271.401 533.812 273.186C533.081 274.941 532.715 276.872 532.715 278.978C532.715 281.085 533.081 283.03 533.812 284.815C534.573 286.571 535.626 288.121 536.972 289.467C538.318 290.783 539.897 291.807 541.711 292.539C543.525 293.27 545.485 293.636 547.592 293.636Z" fill="white"/>
</svg>
